<svg data-name="Capa 1" version="1.1" viewBox="0 0 272 822" xmlns="http://www.w3.org/2000/svg">
 <defs>
  <style>.cls-1{fill:#2e4057;}.cls-2{fill:#9aaea4;}</style>
 </defs>
 <title>Almuerzo Logo Exp</title>
 <path class="cls-1" d="M108.86,663.17h8.78v25.72H130V671.4h8.7v17.48h15V663.17h8.78V699H108.86Z"/>
 <path class="cls-1" d="M108.86,634.14h44.81V608.8h8.85v35.5H108.86Z"/>
 <path class="cls-1" d="m149.13 512.63v18c4.77 1.31 9.32 2.62 13.4 3.54v9.83c-16-4.23-37.65-10.86-53.67-16.4v-13.4c17.25-4.7 39.27-11.32 53.67-16.4v10.47c-3.86 1.28-8.48 2.82-13.4 4.36zm-30 9.62c6.93 2.23 13.71 4.23 21.25 6.16v-13.24c-7.93 2.23-14.32 3.77-21.25 5.31z"/>
 <path class="cls-1" d="m108.86 472.44h44.81v-25.33h8.85v35.5h-53.66z"/>
 <path class="cls-1" d="m108.86 402.45v-10.63h53.67v8.24h-38.43c10.7 3.62 22.94 7.16 33.49 10.32v6c-10.55 3.16-23.18 6.54-33.49 10h38.42v8.08h-53.66v-11.07c10.47-3.85 21.64-7.24 32.8-10.63-11.24-3.15-22.48-6.62-32.8-10.31z"/>
 <path class="cls-1" d="m146.28 339c14.09 0 17.32 8.55 17.32 20.25s-3.23 20.25-17.32 20.25h-37.42v-10.24h35.88c7.16 0 9.55-3.16 9.55-10 0-6.39-2-10.09-9.55-10.09h-35.88v-10.09z"/>
 <path class="cls-1" d="M108.86,285.87h8.78v25.72H130V294.11h8.7v17.48h15V285.87h8.78v35.88H108.86Z"/>
 <path class="cls-1" d="m162.52 228v12.6c-14.7 8.4-20.52 13.4-20.52 16.86v2.54h20.48v10.16h-53.62v-23.33c0-11.32 7-14.94 15.63-14.94 7.7 0 14.32 3.39 14.71 14.09 1.3-3.69 7.62-8.54 23.32-17.98zm-28.87 32v-10.55c0-3.93-2.62-6.24-7.85-6.24-5.62 0-8.32 2.23-8.32 6v10.79z"/>
 <path class="cls-1" d="M160.06,220.19c-12.55-9.24-31-21.87-42.42-29.41V218.5h-8.78V175h2.31c12.4,7.7,32.26,21.17,42.58,29.41V175.53h8.78v44.66Z"/>
 <path class="cls-1" d="m135.19 122.79c22.17 0 28.41 6.93 28.41 20.71s-6.24 20.64-28.41 20.64c-21.79 0-27.64-7-27.64-20.64 0-13.78 5.85-20.71 27.64-20.71zm0.15 10.24c-16.25 0-18.63 2.39-18.63 10.47 0 7.93 2.39 10.32 18.63 10.32s19.09-2.39 19.09-10.32c0.01-8.08-2.92-10.5-19.09-10.5z"/>
 <path class="cls-2" d="M272,0H22V22H0V822H250V800h22ZM244,816H6V28H22V800H244Zm0-22H28V28H244Zm22,0H250V22H28V6H266Z"/>
</svg>
