<svg width="822" height="272" data-name="Capa 1" version="1.1" viewBox="0 0 822 272" xmlns="http://www.w3.org/2000/svg">
 <defs>
  <style>.cls-1{fill:#5d89b4;}.cls-2{fill:#2e4057;}</style>
 </defs>
 <title>Desayuno Logo Exp</title>
 <g transform="rotate(90,411,411)">
  <path class="cls-1" d="m272 0h-250v22h-22v800h250v-22h22zm-28 816h-238v-788h16v772h222zm0-22h-216v-766h216zm22 0h-16v-772h-222v-16h238z"/>
  <g id="_Grupo_" data-name="&lt;Grupo&gt;">
   <path id="_Trazado_compuesto_" class="cls-2" d="m109.45 663.24h8.72v25.76h12.32v-17.52h8.65v17.52h14.92v-25.76h8.72v35.89h-53.33z" data-name="&lt;Trazado compuesto&gt;"/>
   <path class="cls-2" d="m109.45 634.22h44.55v-25.34h8.8v35.51h-53.35z" data-name="&lt;Trazado compuesto&gt;"/>
   <path class="cls-2" d="m109.45 524.27c0-17 5.74-25.34 26.48-25.34s26.86 8.32 26.86 25.34v15.87h-53.34zm8.72 1v4.73h35.89v-4.7c0-11.86-3-15.48-18.06-15.48-15.69-0.03-17.83 3.58-17.83 15.45z" data-name="&lt;Trazado compuesto&gt;"/>
   <path class="cls-2" d="m109.45 447.65h8.72v25.73h12.32v-17.49h8.65v17.48h14.92v-25.72h8.72v35.89h-53.33z" data-name="&lt;Trazado compuesto&gt;"/>
   <path class="cls-2" d="m119.24 396.52c-1.07 3-1.91 8.78-1.91 14.17 0 8.55 1.76 12.09 7 12.09 4.05 0 5.89-2 6.81-11.78 1.3-12.48 5.89-18 16-18 12.55 0 16.76 7.7 16.76 23.18a57 57 0 0 1-2.37 16.71l-8.72-2.23a53.1 53.1 0 0 0 1.91-14.33c0-8.55-1.53-12.4-7-12.4-4 0-6.51 1.93-7.42 12.24-1.15 11.86-4.82 17.41-14.69 17.41-12.55 0-17.37-7.85-17.37-22.88a57.56 57.56 0 0 1 2.37-16.41z" data-name="&lt;Trazado compuesto&gt;"/>
   <path class="cls-2" d="m149.47 351v18c4.74 1.31 9.26 2.62 13.31 3.54v9.86c-15.92-4.24-37.42-10.86-53.34-16.41v-13.4c17.14-4.7 39-11.33 53.34-16.41v10.52c-3.78 1.24-8.41 2.78-13.31 4.3zm-29.77 9.63c6.89 2.23 13.62 4.24 21.12 6.16v-13.23c-7.88 2.23-14.23 3.77-21.12 5.31z" data-name="&lt;Trazado compuesto&gt;"/>
   <path class="cls-2" d="m129.8 304.59c-7.19-4.47-14.46-8.78-20.36-11.86v-10.4c9.18 5.16 20.13 11.71 30.3 18.26h23v8.55h-23c-10.87 6.47-22.57 13.79-30.38 19.25v-11.17c5.75-3.85 13.02-8.32 20.44-12.63z" data-name="&lt;Trazado compuesto&gt;"/>
   <path class="cls-2" d="m146.64 231.28c14 0 17.22 8.55 17.22 20.26s-3.21 20.26-17.22 20.26h-37.19v-10.25h35.66c7.12 0 9.49-3.16 9.49-10 0-6.4-2-10.09-9.49-10.09h-35.66v-10.11z" data-name="&lt;Trazado compuesto&gt;"/>
   <path class="cls-2" d="m162.78 178.53v10.09c-13.31 6.08-23.88 11.24-37.11 18.33h37.11v9.55h-53.33v-10.85c12.17-6.55 22.42-11.55 35.43-17.41h-35.43v-9.7z" data-name="&lt;Trazado compuesto&gt;"/>
   <path class="cls-2" d="m135.62 122.86c22 0 28.24 6.93 28.24 20.72s-6.2 20.64-28.24 20.64c-21.65 0-27.47-7-27.47-20.64 0-13.78 5.85-20.72 27.47-20.72zm0.15 10.24c-16.15 0-18.52 2.39-18.52 10.48 0 7.93 2.37 10.32 18.52 10.32s19-2.39 19-10.32c-0.02-8.08-2.93-10.47-19-10.47z" data-name="&lt;Trazado compuesto&gt;"/>
  </g>
 </g>
</svg>
