<svg width="42.8" height="42.8" version="1.1" viewBox="0 0 42.8 42.8" xml:space="preserve" xmlns="http://www.w3.org/2000/svg">
<style type="text/css">
	.st0{fill:none;}
</style>
<g transform="translate(-5.3,-4.9)">
	<rect class="st0" x="-.2" y=".1" width="53.8" height="53.4"/>
	<path d="m48.1 26.3c0 4.3 0 7.2-0.1 8.8-0.2 3.9-1.3 6.9-3.5 9s-5.1 3.3-9 3.5c-1.6 0.1-4.6 0.1-8.8 0.1-4.3 0-7.2 0-8.8-0.1-3.9-0.2-6.9-1.3-9-3.5-2.1-2.1-3.3-5.1-3.5-9-0.1-1.6-0.1-4.6-0.1-8.8s0-7.2 0.1-8.8c0.2-3.9 1.3-6.9 3.5-9 2.1-2.1 5.1-3.3 9-3.5 1.6-0.1 4.6-0.1 8.8-0.1 4.3 0 7.2 0 8.8 0.1 3.9 0.2 6.9 1.3 9 3.5s3.3 5.1 3.5 9c0 1.6 0.1 4.5 0.1 8.8zm-19.3-17.6h-2.1-2.1-2.9c-0.7 0-1.6 0-2.7 0.1-1.1 0-2.1 0.1-2.9 0.3-0.8 0.1-1.5 0.3-2 0.5-0.9 0.4-1.7 0.9-2.5 1.6-0.7 0.7-1.2 1.5-1.6 2.5-0.2 0.5-0.4 1.2-0.5 2s-0.2 1.7-0.3 2.9c0 1.1-0.1 2-0.1 2.7v2.9 2.1 2.1 2.9c0 0.7 0 1.6 0.1 2.7 0 1.1 0.1 2.1 0.3 2.9s0.3 1.5 0.5 2c0.4 0.9 0.9 1.7 1.6 2.5 0.7 0.7 1.5 1.2 2.5 1.6 0.5 0.2 1.2 0.4 2 0.5s1.7 0.2 2.9 0.3 2 0.1 2.7 0.1h2.9 2.1 2.1 2.9c0.7 0 1.6 0 2.7-0.1 1.1 0 2.1-0.1 2.9-0.3 0.8-0.1 1.5-0.3 2-0.5 0.9-0.4 1.7-0.9 2.5-1.6 0.7-0.7 1.2-1.5 1.6-2.5 0.2-0.5 0.4-1.2 0.5-2s0.2-1.7 0.3-2.9c0-1.1 0.1-2 0.1-2.7v-2.9-2.1-2.1-2.9c0-0.7 0-1.6-0.1-2.7 0-1.1-0.1-2.1-0.3-2.9-0.1-0.8-0.3-1.5-0.5-2-0.4-0.9-0.9-1.7-1.6-2.5-0.7-0.7-1.5-1.2-2.5-1.6-0.5-0.2-1.2-0.4-2-0.5s-1.7-0.2-2.9-0.3c-1.1 0-2-0.1-2.7-0.1h-2.9zm5.6 9.8c2.1 2.1 3.2 4.7 3.2 7.8s-1.1 5.6-3.2 7.8c-2.1 2.1-4.7 3.2-7.8 3.2s-5.6-1.1-7.8-3.2c-2.1-2.1-3.2-4.7-3.2-7.8s1.1-5.6 3.2-7.8c2.1-2.1 4.7-3.2 7.8-3.2s5.7 1 7.8 3.2zm-2.7 12.8c1.4-1.4 2.1-3.1 2.1-5s-0.7-3.7-2.1-5.1-3.1-2.1-5.1-2.1-3.7 0.7-5.1 2.1-2.1 3.1-2.1 5.1 0.7 3.7 2.1 5c1.4 1.4 3.1 2.1 5.1 2.1s3.7-0.7 5.1-2.1zm8.2-18.3c0.5 0.5 0.8 1.1 0.8 1.8s-0.3 1.3-0.8 1.8-1.1 0.8-1.8 0.8-1.3-0.3-1.8-0.8-0.8-1.1-0.8-1.8 0.3-1.3 0.8-1.8 1.1-0.8 1.8-0.8 1.3 0.3 1.8 0.8z" fill="#fff"/>
</g>
</svg>
