<svg width="822" height="272" data-name="Capa 1" version="1.1" viewBox="0 0 822 272" xmlns="http://www.w3.org/2000/svg">
 <defs>
  <style>.cls-1{fill:#2e4057;}</style>
 </defs>
 <title>Picapica Logo Exp</title>
 <g transform="rotate(90,411,411)">
  <path class="cls-1" d="m272 0h-250v22h-22v800h250v-22h22zm-28 816h-238v-788h16v772h222zm0-22h-216v-766h216zm22 0h-16v-772h-222v-16h238z"/>
  <g id="_Grupo_" data-name="&lt;Grupo&gt;">
   <path id="_Trazado_compuesto_" class="cls-1" d="m109.36 663.65h8.75v25.65h12.36v-17.43h8.68v17.43h15v-25.65h8.75v35.79h-53.54z" data-name="&lt;Trazado compuesto&gt;"/>
   <path class="cls-1" d="m109.36 634.71h44.64v-25.27h8.83v35.41h-53.47z" data-name="&lt;Trazado compuesto&gt;"/>
   <path class="cls-1" d="m162.87 538.66h-53.51v-23.27c0-11.29 7.91-14.9 18.35-14.9 9.21 0 17.51 4.38 17.51 14.67v13.36h17.66zm-26.11-20.43c0-4.23-3.07-6.6-9.14-6.6-6.53 0-9.68 2.23-9.68 6.37v10.52h18.81z" data-name="&lt;Trazado compuesto&gt;"/>
   <path class="cls-1" d="m109.36 483.22v-30.22h8.75v10h36v-10h8.75v30.26h-8.75v-10.1h-36v10.06z" data-name="&lt;Trazado compuesto&gt;"/>
   <path class="cls-1" d="m108.05 408a64.63 64.63 0 0 1 2-15.36l8.91 2.23a39.71 39.71 0 0 0-1.69 11.37c0 11.67 2 16 18.43 16s19-4.38 19-16a39.76 39.76 0 0 0-1.7-11.41l9.06-2.23a64.71 64.71 0 0 1 1.89 15.4c0 17-6.53 25.11-28.33 25.11s-27.57-8.17-27.57-25.11z" data-name="&lt;Trazado compuesto&gt;"/>
   <path class="cls-1" d="m149.51 352.3v18c4.76 1.31 9.29 2.61 13.36 3.53v9.83c-16-4.23-37.55-10.83-53.52-16.36v-13.39c17.2-4.69 39.16-11.29 53.52-16.36v10.45c-3.87 1.22-8.44 2.76-13.36 4.3zm-29.87 9.6c6.91 2.23 13.67 4.23 21.19 6.14v-13.21c-7.91 2.23-14.28 3.76-21.19 5.3z" data-name="&lt;Trazado compuesto&gt;"/>
   <path class="cls-1" d="m162.87 323.67h-53.51v-23.28c0-11.29 7.91-14.9 18.35-14.9 9.21 0 17.51 4.38 17.51 14.67v13.36h17.66zm-26.11-20.43c0-4.23-3.07-6.6-9.14-6.6-6.53 0-9.68 2.23-9.68 6.37v10.52h18.81z" data-name="&lt;Trazado compuesto&gt;"/>
   <path class="cls-1" d="m109.36 268.23v-30.23h8.75v10h36v-10h8.75v30.26h-8.75v-10.1h-36v10.06z" data-name="&lt;Trazado compuesto&gt;"/>
   <path class="cls-1" d="m108.05 193a64.63 64.63 0 0 1 2-15.36l8.91 2.23a39.71 39.71 0 0 0-1.69 11.37c0 11.67 2 16 18.43 16s19-4.38 19-16a39.76 39.76 0 0 0-1.7-11.4l9.06-2.23a64.71 64.71 0 0 1 1.89 15.39c0 17-6.53 25.11-28.33 25.11s-27.57-8.16-27.57-25.11z" data-name="&lt;Trazado compuesto&gt;"/>
   <path class="cls-1" d="m149.51 137.31v18c4.76 1.31 9.29 2.61 13.36 3.53v9.83c-16-4.23-37.55-10.83-53.52-16.36v-13.39c17.2-4.69 39.16-11.29 53.52-16.36v10.44c-3.87 1.23-8.44 2.77-13.36 4.31zm-29.87 9.6c6.91 2.23 13.67 4.23 21.19 6.14v-13.21c-7.91 2.23-14.28 3.76-21.19 5.3z" data-name="&lt;Trazado compuesto&gt;"/>
  </g>
 </g>
</svg>
