<svg id="Capa_1" data-name="Capa 1" xmlns="http://www.w3.org/2000/svg" viewBox="0 0 750 559"><defs><style>.cls-1{fill:#d1e3f8;}.cls-2{fill:#fff;}.cls-3{fill:none;stroke:#d1e3f8;stroke-miterlimit:10;stroke-width:3.75px;}.cls-4{fill:#c5c3c6;}.cls-5{fill:#2e4057;}</style></defs><title>Mapa Exp</title><path class="cls-1" d="M21.05,26.77v0l-17.41,0L106.86,300l-99,32.46,2.34,7.13,98.28-32.21L82.15,465.3,7,465.25v7.5l144.26.09,62.89,34.1L250.8,481.2l173.67,76.58L741.65,27.66ZM322.74,290.59,188.33,273.28l-36.45,11.95,15.3-127.09,199.95,24.22ZM412.28,143l135,194.88-35.46,59.26L398.15,179.34Zm3.28-8.44L454.27,34.8l97.83.12-9.36,108.42L616,223.09,551.55,330.76Zm134.93,6.19,9.14-105.76,168.81.21L620,216.38ZM330,35.11V170.3L53.22,136.77,14.5,34.28ZM56.21,144.69l103.53,12.54L144,287.8l-30,9.84ZM213.63,498.13l-60.47-32.79-63.41,0,26.74-160.59,72.56-23.78L319.8,297.77l-72.47,176.7Zm207.8,50.1L255.23,475,374.86,183.28l18,2.18L507.35,404.64Z"/><path class="cls-2" d="M369.05,46.28a4.14,4.14,0,0,1-2.31.62,4.39,4.39,0,0,1-2.16-.51,3.39,3.39,0,0,1-1.4-1.46,5.57,5.57,0,0,1,0-4.56,3.4,3.4,0,0,1,1.4-1.47A4.86,4.86,0,0,1,369,39a2.72,2.72,0,0,1,1.24,1.71l-1.89.76a1.89,1.89,0,0,0-.54-1,1.57,1.57,0,0,0-1-.3,1.67,1.67,0,0,0-1.41.66,3.1,3.1,0,0,0-.5,1.91,3.19,3.19,0,0,0,.48,1.91,1.62,1.62,0,0,0,1.39.66,1.68,1.68,0,0,0,1.09-.33,1.74,1.74,0,0,0,.55-1l2,.55A3.14,3.14,0,0,1,369.05,46.28Z"/><path class="cls-2" d="M377.53,44.91h-2.85l-.57,1.86h-2.16l2.9-8.25h2.57l2.89,8.25h-2.21Zm-.45-1.46-.6-2-.36-1.3h0l-.34,1.29-.62,2Z"/><path class="cls-2" d="M388.8,45.11v1.66h-6.29V38.52h2.15v6.59Z"/><path class="cls-2" d="M397.58,45.11v1.66h-6.29V38.52h2.15v6.59Z"/><path class="cls-2" d="M404.79,44.91h-2.85l-.57,1.86H399.2l2.9-8.25h2.57l2.89,8.25h-2.21Zm-.45-1.46-.6-2-.36-1.3h0L403,41.46l-.62,2Z"/><path class="cls-2" d="M415.32,38.9a3.41,3.41,0,0,1,1.39,1.46,5.58,5.58,0,0,1,0,4.56,3.4,3.4,0,0,1-1.39,1.46,4.86,4.86,0,0,1-4.32,0,3.39,3.39,0,0,1-1.4-1.46,5.59,5.59,0,0,1,0-4.56A3.4,3.4,0,0,1,411,38.9a4.86,4.86,0,0,1,4.32,0Zm-3.53,1.83a3.22,3.22,0,0,0-.47,1.91,3.22,3.22,0,0,0,.47,1.91,1.6,1.6,0,0,0,1.38.65,1.58,1.58,0,0,0,1.37-.65,3.25,3.25,0,0,0,.47-1.91,3.25,3.25,0,0,0-.47-1.91,1.58,1.58,0,0,0-1.37-.65A1.6,1.6,0,0,0,411.79,40.73Z"/><path class="cls-2" d="M358.55,81.85a2.53,2.53,0,0,1,.83,2,2.41,2.41,0,0,1-.83,2,3.57,3.57,0,0,1-2.36.69h-1.64v2.86H352.4V81.14h3.79A3.53,3.53,0,0,1,358.55,81.85Zm-1.67,2.84a1,1,0,0,0,.33-.83,1,1,0,0,0-.33-.82,1.63,1.63,0,0,0-1-.27h-1.3V85h1.3A1.63,1.63,0,0,0,356.88,84.69Z"/><path class="cls-2" d="M368.28,87.73v1.66H362V81.14h2.15v6.59Z"/><path class="cls-2" d="M375.5,87.53h-2.85l-.58,1.86h-2.16l2.9-8.25h2.57l2.89,8.25h-2.21ZM375,86.07l-.6-2-.36-1.3h0l-.34,1.29-.62,2Z"/><path class="cls-2" d="M387.11,87.77v1.63H380V87.84l4.61-5.08h-4.53V81.14H387v1.55l-4.59,5.08Z"/><path class="cls-2" d="M394.38,87.53h-2.85L391,89.39H388.8l2.9-8.25h2.57l2.89,8.25h-2.21Zm-.45-1.46-.6-2-.36-1.3h0l-.34,1.29-.62,2Z"/><path class="cls-2" d="M368.29,93.46a5,5,0,0,1,0,6.11,3.94,3.94,0,0,1-3,1.07h-3.5V92.39h3.5A3.94,3.94,0,0,1,368.29,93.46Zm-1.66,4.93a3.85,3.85,0,0,0,0-3.75,1.81,1.81,0,0,0-1.52-.62H364v5h1.14A1.81,1.81,0,0,0,366.63,98.39Z"/><path class="cls-2" d="M378.63,99v1.66H372V92.39h6.42v1.66H374.2v1.68h3.4v1.56h-3.4V99Z"/><path class="cls-2" d="M387.47,99v1.66h-6.29V92.39h2.15V99Z"/><path class="cls-2" d="M353.31,111.4A4.14,4.14,0,0,1,351,112a4.39,4.39,0,0,1-2.16-.51,3.4,3.4,0,0,1-1.4-1.46,5.57,5.57,0,0,1,0-4.56,3.39,3.39,0,0,1,1.4-1.47,4.86,4.86,0,0,1,4.44.06,2.72,2.72,0,0,1,1.24,1.71l-1.89.76a1.89,1.89,0,0,0-.54-1,1.57,1.57,0,0,0-1-.3,1.67,1.67,0,0,0-1.41.66,3.1,3.1,0,0,0-.5,1.91,3.19,3.19,0,0,0,.48,1.91,1.62,1.62,0,0,0,1.39.66,1.68,1.68,0,0,0,1.09-.33,1.74,1.74,0,0,0,.55-1l2,.55A3.14,3.14,0,0,1,353.31,111.4Z"/><path class="cls-2" d="M361.79,110h-2.85l-.58,1.86H356.2l2.9-8.25h2.57l2.89,8.25h-2.21Zm-.45-1.46-.6-2-.36-1.3h0l-.34,1.29-.62,2Z"/><path class="cls-2" d="M373.06,110.23v1.66h-6.29v-8.25h2.15v6.59Z"/><path class="cls-2" d="M381.84,110.23v1.66h-6.29v-8.25h2.15v6.59Z"/><path class="cls-2" d="M389.05,110H386.2l-.58,1.86h-2.16l2.9-8.25h2.57l2.89,8.25h-2.21Zm-.45-1.46-.6-2-.36-1.3h0l-.34,1.29-.62,2Z"/><path class="cls-2" d="M399.58,104a3.4,3.4,0,0,1,1.39,1.46,5.58,5.58,0,0,1,0,4.56,3.4,3.4,0,0,1-1.39,1.46,4.86,4.86,0,0,1-4.32,0,3.4,3.4,0,0,1-1.4-1.46,5.58,5.58,0,0,1,0-4.56,3.4,3.4,0,0,1,1.4-1.46,4.86,4.86,0,0,1,4.32,0Zm-3.53,1.83a4.09,4.09,0,0,0,0,3.82,1.6,1.6,0,0,0,1.38.65,1.58,1.58,0,0,0,1.37-.65,4.13,4.13,0,0,0,0-3.82,1.58,1.58,0,0,0-1.37-.65A1.6,1.6,0,0,0,396.05,105.86Z"/><path class="cls-1" d="M534.36,17.62v4.46h-1.5l-.06-1a2.6,2.6,0,0,1-2.36,1.1,4,4,0,0,1-2-.49,3.39,3.39,0,0,1-1.36-1.45A5,5,0,0,1,526.6,18a4.87,4.87,0,0,1,.5-2.28,3.49,3.49,0,0,1,1.42-1.47,4.44,4.44,0,0,1,2.19-.51,4.52,4.52,0,0,1,2.27.5,3.39,3.39,0,0,1,1.36,1.61l-2,.79a1.52,1.52,0,0,0-.56-.91,1.69,1.69,0,0,0-1-.3,1.74,1.74,0,0,0-1.46.65,3.07,3.07,0,0,0-.5,1.91q0,2.6,2,2.6a2,2,0,0,0,1.23-.35,1.19,1.19,0,0,0,.47-1v-.12h-2V17.62Z"/><path class="cls-1" d="M540.65,19.06h-1.29v3h-2.11V13.83h3.94a3.5,3.5,0,0,1,2.31.67,2.4,2.4,0,0,1,.81,2,2.59,2.59,0,0,1-.41,1.5,2.4,2.4,0,0,1-1.2.89l2.1,3.24h-2.37Zm-1.29-1.52h1.46a1.61,1.61,0,0,0,1-.25,1,1,0,0,0,.31-.8,1,1,0,0,0-.31-.79,1.6,1.6,0,0,0-1-.25h-1.46Z"/><path class="cls-1" d="M551.84,20.21H549l-.57,1.86h-2.16l2.9-8.25h2.57l2.89,8.25H552.4Zm-.45-1.46-.6-2-.36-1.3h0l-.34,1.29-.62,2Z"/><path class="cls-1" d="M564.26,22.06h-2.39l-2.56-4.46-.63-1.25h0l.05,1.55v4.16h-1.9V13.82h2.39l2.56,4.46.63,1.25h0L562.36,18V13.82h1.9Z"/><path class="cls-1" d="M576.42,22.06H573.9L571,13.81h2.26l1.51,5,.45,1.63.44-1.6,1.54-5h2.19Z"/><path class="cls-1" d="M583.74,22.06h-2.15V13.81h2.15Zm.72-11-1.15,2h-1.55l.69-2Z"/><path class="cls-1" d="M591.54,20.19h-2.85l-.57,1.86h-2.16l2.9-8.25h2.57l2.89,8.25H592.1Zm-.45-1.46-.6-2-.36-1.3h0l-.34,1.29-.62,2Z"/><path class="cls-1" d="M134.24,21.61a4.15,4.15,0,0,1-2.31.62,4.4,4.4,0,0,1-2.16-.5,3.4,3.4,0,0,1-1.4-1.46,5,5,0,0,1-.49-2.28,5,5,0,0,1,.49-2.28,3.39,3.39,0,0,1,1.4-1.47,4.86,4.86,0,0,1,4.44.06A2.72,2.72,0,0,1,135.44,16l-1.89.76a1.89,1.89,0,0,0-.54-1,1.57,1.57,0,0,0-1-.3,1.67,1.67,0,0,0-1.41.66,3.11,3.11,0,0,0-.5,1.91,3.19,3.19,0,0,0,.48,1.91,1.62,1.62,0,0,0,1.39.66,1.68,1.68,0,0,0,1.09-.33,1.74,1.74,0,0,0,.55-1l2,.55A3.14,3.14,0,0,1,134.24,21.61Z"/><path class="cls-1" d="M142.72,20.24h-2.85l-.57,1.86h-2.16l2.9-8.25h2.57l2.89,8.25h-2.21Zm-.45-1.46-.6-2-.36-1.3h0l-.34,1.29-.62,2Z"/><path class="cls-1" d="M154,20.43V22.1h-6.29V13.85h2.15v6.59Z"/><path class="cls-1" d="M162.77,20.43v1.66h-6.29V13.84h2.15v6.59Z"/><path class="cls-1" d="M171.84,20.43v1.66h-6.59V13.84h6.42V15.5H167.4v1.68h3.4v1.56h-3.4v1.69Z"/><path class="cls-1" d="M185.69,14.9a4.23,4.23,0,0,1,1,3.06,4.23,4.23,0,0,1-1,3.06,3.94,3.94,0,0,1-3,1.07h-3.5V13.83h3.5A3.94,3.94,0,0,1,185.69,14.9ZM184,19.83a3,3,0,0,0,.49-1.87,3,3,0,0,0-.49-1.87,1.82,1.82,0,0,0-1.53-.62h-1.14v5h1.14A1.81,1.81,0,0,0,184,19.83Z"/><path class="cls-1" d="M196,20.42v1.66h-6.59V13.83h6.42v1.66h-4.27v1.68H195v1.56h-3.4v1.69Z"/><path class="cls-1" d="M209.28,18.9a3.21,3.21,0,0,1-.91,2.43,3.56,3.56,0,0,1-2.57.87,3.44,3.44,0,0,1-2.34-.7,2.42,2.42,0,0,1-.79-1.91,4.36,4.36,0,0,1,.07-.78l2.13-.38a6.13,6.13,0,0,0-.06.78,1.49,1.49,0,0,0,.27,1,1,1,0,0,0,.83.31,1,1,0,0,0,.94-.44,2.67,2.67,0,0,0,.28-1.4V13.82h2.15Z"/><path class="cls-1" d="M216.71,20.21h-2.85l-.57,1.86h-2.16l2.9-8.25h2.57l2.89,8.25h-2.21Zm-.45-1.46-.6-2-.36-1.3h0l-.34,1.29-.62,2Z"/><path class="cls-1" d="M227.39,21.57a4.14,4.14,0,0,1-2.31.62,4.4,4.4,0,0,1-2.16-.5,3.39,3.39,0,0,1-1.4-1.46,5,5,0,0,1-.49-2.28,5,5,0,0,1,.49-2.28,3.39,3.39,0,0,1,1.4-1.47,4.86,4.86,0,0,1,4.44.06A2.72,2.72,0,0,1,228.59,16l-1.89.76a1.88,1.88,0,0,0-.54-1,1.57,1.57,0,0,0-1-.3,1.67,1.67,0,0,0-1.41.66,3.1,3.1,0,0,0-.5,1.91,3.19,3.19,0,0,0,.48,1.91,1.62,1.62,0,0,0,1.39.66,1.68,1.68,0,0,0,1.09-.33,1.74,1.74,0,0,0,.55-1l2,.55A3.14,3.14,0,0,1,227.39,21.57Z"/><path class="cls-1" d="M237,14.19a3.41,3.41,0,0,1,1.39,1.46,5,5,0,0,1,.49,2.28,5,5,0,0,1-.49,2.28A3.4,3.4,0,0,1,237,21.68a4.36,4.36,0,0,1-2.16.51,4.41,4.41,0,0,1-2.16-.5,3.4,3.4,0,0,1-1.4-1.46,5,5,0,0,1-.49-2.28,5,5,0,0,1,.49-2.28,3.39,3.39,0,0,1,1.4-1.46,4.87,4.87,0,0,1,4.32,0ZM233.47,16a3.22,3.22,0,0,0-.47,1.91,3.22,3.22,0,0,0,.48,1.91,1.6,1.6,0,0,0,1.38.65,1.58,1.58,0,0,0,1.37-.65,3.25,3.25,0,0,0,.47-1.91,3.25,3.25,0,0,0-.47-1.91,1.58,1.58,0,0,0-1.37-.65A1.6,1.6,0,0,0,233.47,16Z"/><path class="cls-1" d="M251.16,22.05h-1.9V18.27l.06-2.54h0l-2,6.33h-1.74l-2-6.32h0l.06,2.54v3.79h-1.91V13.81h3.06L246,18l.46,1.75h0l.47-1.74,1.29-4.21h2.94Z"/><path class="cls-1" d="M260.82,20.38V22h-6.59V13.8h6.42v1.66h-4.27v1.68h3.4V18.7h-3.4v1.69Z"/><path class="cls-1" d="M270.3,15.46h-2.69V22h-2.15V15.46h-2.7V13.8h7.54Z"/><path class="cls-1" d="M276.18,19h-1.29v3h-2.11V13.79h3.94a3.49,3.49,0,0,1,2.31.67,2.4,2.4,0,0,1,.81,1.95,2.59,2.59,0,0,1-.41,1.5,2.4,2.4,0,0,1-1.2.89l2.1,3.24h-2.37Zm-1.29-1.52h1.46a1.61,1.61,0,0,0,1-.25,1,1,0,0,0,.31-.8,1,1,0,0,0-.31-.79,1.6,1.6,0,0,0-1-.25h-1.46Z"/><path class="cls-1" d="M289.23,20.37V22h-6.59V13.79h6.42v1.66h-4.27v1.68h3.4v1.56h-3.4v1.69Z"/><path class="cls-1" d="M298.41,20.41V22h-7.08V20.48l4.61-5.08h-4.53V13.78h6.84v1.55l-4.59,5.08Z"/><path class="cls-1" d="M306.75,14.16a3.4,3.4,0,0,1,1.39,1.46,5,5,0,0,1,.49,2.28,5,5,0,0,1-.49,2.28,3.41,3.41,0,0,1-1.39,1.46,4.86,4.86,0,0,1-4.32,0,3.4,3.4,0,0,1-1.4-1.46,5,5,0,0,1-.49-2.28,5,5,0,0,1,.49-2.28,3.39,3.39,0,0,1,1.4-1.46,4.86,4.86,0,0,1,4.32,0ZM303.22,16a3.22,3.22,0,0,0-.47,1.91,3.21,3.21,0,0,0,.48,1.91,1.6,1.6,0,0,0,1.38.65,1.58,1.58,0,0,0,1.37-.65,3.25,3.25,0,0,0,.47-1.91A3.25,3.25,0,0,0,306,16a1.58,1.58,0,0,0-1.37-.65A1.6,1.6,0,0,0,303.22,16Z"/><path class="cls-1" d="M451.33,177.31a4.15,4.15,0,0,1-1.83-1.55,4.39,4.39,0,0,1-.82-2.06,3.39,3.39,0,0,1,.4-2,5.56,5.56,0,0,1,3.74-2.6,3.37,3.37,0,0,1,2,.31,4.85,4.85,0,0,1,2.48,3.68,2.72,2.72,0,0,1-.69,2l-1.7-1.11a1.88,1.88,0,0,0,.55-1,1.56,1.56,0,0,0-.34-1,1.67,1.67,0,0,0-1.34-.79,3.1,3.1,0,0,0-1.85.68,3.19,3.19,0,0,0-1.29,1.48,1.62,1.62,0,0,0,.26,1.52,1.67,1.67,0,0,0,.89.71,1.74,1.74,0,0,0,1.16-.13l.66,1.92A3.15,3.15,0,0,1,451.33,177.31Z"/><path class="cls-1" d="M457.29,183.49l-1.63-2.34-1.86.59L452.57,180l8.43-2.33,1.47,2.11-5.12,7.08L456.08,185Zm.94-1.21,1.28-1.62.86-1v0l-1.25.46-2,.62Z"/><path class="cls-1" d="M463.56,192.86l-1.36.95-3.59-5.16,6.77-4.71,1.23,1.77-5.41,3.76Z"/><path class="cls-1" d="M468.57,200.06l-1.36.95-3.59-5.16,6.77-4.71,1.23,1.76-5.41,3.76Z"/><path class="cls-1" d="M473.76,207.51l-1.36.95-3.76-5.41,6.77-4.71,3.67,5.27-1.36.95-2.44-3.51-1.37,1,1.94,2.79-1.28.89-1.94-2.79-1.39,1Z"/><path class="cls-1" d="M486.19,215.72a5,5,0,0,1-5,3.49,3.93,3.93,0,0,1-2.57-1.83l-2-2.87,6.77-4.71,2,2.87A3.93,3.93,0,0,1,486.19,215.72Zm-5,1.46a3.85,3.85,0,0,0,3.08-2.14,1.81,1.81,0,0,0-.36-1.61l-.65-.93-4.1,2.86.65.93A1.81,1.81,0,0,0,481.2,217.18Z"/><path class="cls-1" d="M487.57,227.37l-1.36.95-3.76-5.41,6.77-4.71,3.67,5.28-1.36.95-2.44-3.51-1.37,1,1.94,2.79-1.28.89-1.94-2.79-1.39,1Z"/><path class="cls-1" d="M492.62,234.62l-1.36.95-3.59-5.16,6.77-4.71,1.23,1.76-5.41,3.76Z"/><path class="cls-1" d="M499.1,246a4.14,4.14,0,0,1-1.83-1.55,4.39,4.39,0,0,1-.82-2.06,3.39,3.39,0,0,1,.4-2,5.56,5.56,0,0,1,3.74-2.6,3.37,3.37,0,0,1,2,.31,4.85,4.85,0,0,1,2.48,3.68,2.72,2.72,0,0,1-.69,2l-1.7-1.11a1.88,1.88,0,0,0,.55-1,1.56,1.56,0,0,0-.34-1,1.67,1.67,0,0,0-1.35-.79,3.1,3.1,0,0,0-1.85.68,3.19,3.19,0,0,0-1.29,1.48,1.62,1.62,0,0,0,.26,1.52,1.67,1.67,0,0,0,.89.71,1.74,1.74,0,0,0,1.16-.13l.66,1.92A3.14,3.14,0,0,1,499.1,246Z"/><path class="cls-1" d="M505.07,252.17l-1.63-2.34-1.86.59-1.24-1.78,8.43-2.33,1.47,2.11-5.12,7.08-1.26-1.82ZM506,251l1.28-1.62.86-1v0l-1.25.46-2,.62Z"/><path class="cls-1" d="M510.8,258.4l-.73-1.06-2.47,1.72-1.21-1.74,6.77-4.71,2.25,3.23a3.5,3.5,0,0,1,.76,2.28A2.4,2.4,0,0,1,515,259.9a2.59,2.59,0,0,1-1.47.52,2.4,2.4,0,0,1-1.41-.48l-1.46,3.57-1.36-2Zm.52-1.93.83,1.2a1.6,1.6,0,0,0,.78.68,1,1,0,0,0,.84-.2,1,1,0,0,0,.47-.71,1.6,1.6,0,0,0-.37-1l-.83-1.2Z"/><path class="cls-1" d="M517.47,273.26l-1.08-1.56,3.11-2.16,2.12-1.4v0l-6.36,1.94-1-1.43,4-5.28v0l-2,1.5L513.11,267,512,265.42l6.77-4.71,1.75,2.51-2.71,3.47-1.17,1.38v0l1.7-.6,4.19-1.35,1.68,2.41Z"/><path class="cls-1" d="M524.35,280.24l-1.36.95-3.76-5.41,6.77-4.71,3.67,5.27-1.36.95-2.44-3.51-1.37,1,1.94,2.79-1.28.89-1.94-2.79-1.39,1Z"/><path class="cls-1" d="M528.69,289.39l-1.36-2,2.2-4.65.67-1.23h0l-1.24.93-3.42,2.38-1.09-1.56,6.77-4.71,1.36,2-2.2,4.65-.67,1.23h0l1.24-.93,3.42-2.38,1.08,1.56Z"/><path class="cls-1" d="M424.45,219.48a4.16,4.16,0,0,1-1.62-1.76,4.38,4.38,0,0,1-.55-2.15,3.4,3.4,0,0,1,.65-1.92,5.57,5.57,0,0,1,4-2.11,3.39,3.39,0,0,1,2,.56,4.85,4.85,0,0,1,2,4,2.72,2.72,0,0,1-.94,1.89l-1.55-1.32a1.89,1.89,0,0,0,.68-1,1.57,1.57,0,0,0-.21-1,1.67,1.67,0,0,0-1.24-.95,3.1,3.1,0,0,0-1.92.44,3.2,3.2,0,0,0-1.47,1.31,1.62,1.62,0,0,0,.06,1.54,1.67,1.67,0,0,0,.79.81,1.74,1.74,0,0,0,1.16,0l.42,2A3.14,3.14,0,0,1,424.45,219.48Z"/><path class="cls-1" d="M429.59,226.36l-1.32-2.53-1.92.35-1-1.92L434,221l1.19,2.28-6,6.38-1-2Zm1.09-1.08,1.47-1.45,1-.92v0l-1.3.3-2.05.37Z"/><path class="cls-1" d="M434.63,236.44l-1.47.77-2.91-5.57,7.31-3.82,1,1.91-5.84,3.05Z"/><path class="cls-1" d="M438.7,244.22l-1.47.77-2.91-5.57,7.31-3.82,1,1.91-5.84,3.05Z"/><path class="cls-1" d="M442.9,252.26l-1.47.77-3.05-5.84,7.31-3.82,3,5.69-1.47.77-2-3.79-1.48.78,1.58,3-1.38.72-1.58-3-1.5.78Z"/><path class="cls-1" d="M454.2,262a5,5,0,0,1-5.42,2.83,3.94,3.94,0,0,1-2.32-2.14l-1.62-3.1,7.31-3.82,1.62,3.1A3.93,3.93,0,0,1,454.2,262Zm-5.14.82a3.85,3.85,0,0,0,3.32-1.74,1.81,1.81,0,0,0-.15-1.64l-.53-1-4.43,2.32.53,1A1.81,1.81,0,0,0,449.07,262.79Z"/><path class="cls-1" d="M454.1,273.7l-1.47.77-3.05-5.84,7.31-3.82,3,5.69-1.47.77-2-3.79-1.48.78,1.58,3-1.38.72-1.58-3-1.5.78Z"/><path class="cls-1" d="M465.58,283a2.53,2.53,0,0,1-1.42,1.67,2.41,2.41,0,0,1-2.12.17,3.57,3.57,0,0,1-1.71-1.77l-.76-1.45L457,282.91,456,281l7.31-3.82,1.75,3.36A3.53,3.53,0,0,1,465.58,283Zm-3.29-.17a1,1,0,0,0,.89-.09,1,1,0,0,0,.57-.67,1.62,1.62,0,0,0-.24-1l-.6-1.15-1.94,1,.6,1.15A1.63,1.63,0,0,0,462.29,282.8Z"/><path class="cls-1" d="M464.74,291.13l-.6-1.14-2.67,1.4-1-1.87,7.31-3.82,1.82,3.49a3.5,3.5,0,0,1,.47,2.36,2.4,2.4,0,0,1-1.35,1.62,2.58,2.58,0,0,1-1.52.33,2.39,2.39,0,0,1-1.34-.65l-1.9,3.36-1.1-2.1Zm.76-1.85.68,1.3a1.59,1.59,0,0,0,.68.77,1,1,0,0,0,.85-.09,1,1,0,0,0,.55-.64,1.6,1.6,0,0,0-.24-1l-.68-1.3Z"/><path class="cls-1" d="M469.59,303.32l-1.47.77-3.05-5.84,7.31-3.82,3,5.69-1.47.77-2-3.79-1.48.78,1.58,3-1.38.72-1.58-3-1.5.78Z"/><path class="cls-1" d="M472.48,311.39a4.16,4.16,0,0,1-1.62-1.76,4.39,4.39,0,0,1-.55-2.15,3.4,3.4,0,0,1,.65-1.92,5.57,5.57,0,0,1,4-2.11,3.39,3.39,0,0,1,2,.56,4.86,4.86,0,0,1,2,4,2.72,2.72,0,0,1-.94,1.89l-1.55-1.32a1.89,1.89,0,0,0,.68-1,1.57,1.57,0,0,0-.21-1,1.68,1.68,0,0,0-1.24-.95,3.11,3.11,0,0,0-1.92.44,3.19,3.19,0,0,0-1.47,1.31,1.62,1.62,0,0,0,.06,1.54,1.68,1.68,0,0,0,.79.81,1.75,1.75,0,0,0,1.16,0l.42,2A3.13,3.13,0,0,1,472.48,311.39Z"/><path class="cls-1" d="M474.78,316.84l-1-1.91,7.31-3.82,1,1.91Z"/><path class="cls-1" d="M480,322.89l-1.32-2.53-1.92.35-1-1.92,8.66-1.25,1.19,2.28-6,6.38-1-2Zm1.09-1.08,1.47-1.45,1-.92v0l-1.3.3-2.05.37Z"/><path class="cls-1" d="M490.06,330.58a5,5,0,0,1-5.42,2.83,3.94,3.94,0,0,1-2.32-2.14l-1.62-3.1,7.31-3.82,1.62,3.1A3.93,3.93,0,0,1,490.06,330.58Zm-5.14.82a3.85,3.85,0,0,0,3.32-1.74,1.81,1.81,0,0,0-.15-1.64l-.53-1-4.43,2.32.53,1A1.81,1.81,0,0,0,484.92,331.4Z"/><path class="cls-1" d="M495.12,338.78a3.39,3.39,0,0,1-.65,1.91,5.58,5.58,0,0,1-4,2.11,3.39,3.39,0,0,1-1.94-.56,4.86,4.86,0,0,1-2-3.83,3.4,3.4,0,0,1,.65-1.92,5.58,5.58,0,0,1,4-2.11,3.39,3.39,0,0,1,1.94.56,4.86,4.86,0,0,1,2,3.83Zm-3.26-2.28a4.09,4.09,0,0,0-3.39,1.77,1.6,1.6,0,0,0,.06,1.52,1.58,1.58,0,0,0,1.21.91,4.14,4.14,0,0,0,3.39-1.77,1.58,1.58,0,0,0-.06-1.51A1.6,1.6,0,0,0,491.86,336.5Z"/><path class="cls-1" d="M499.78,347.36a4.39,4.39,0,0,1-.29,1.9l-1.8-.43a2.66,2.66,0,0,0,.37-1.28,2.82,2.82,0,0,0-.36-1.32,1.85,1.85,0,0,0-.66-.78.69.69,0,0,0-.69,0,.58.58,0,0,0-.28.56,4.82,4.82,0,0,0,.27,1.28,5.49,5.49,0,0,1,.32,2.59,2.06,2.06,0,0,1-1.16,1.43,2.15,2.15,0,0,1-1.42.23,2.78,2.78,0,0,1-1.35-.7,5,5,0,0,1-1.1-1.45,6.32,6.32,0,0,1-.75-2.18,4,4,0,0,1,.24-1.83l1.84.28a2.78,2.78,0,0,0-.33,1.41,3.59,3.59,0,0,0,.44,1.44,2.16,2.16,0,0,0,.65.82.61.61,0,0,0,.65,0,.54.54,0,0,0,.24-.54,5.28,5.28,0,0,0-.27-1.25,9.2,9.2,0,0,1-.36-1.79,2.58,2.58,0,0,1,.21-1.32,2,2,0,0,1,1-.93,2.4,2.4,0,0,1,1.42-.27,2.73,2.73,0,0,1,1.42.64,4.85,4.85,0,0,1,1.19,1.53A5.17,5.17,0,0,1,499.78,347.36Z"/><path class="cls-1" d="M162.61,144.15a4.15,4.15,0,0,1-2.37.34,4.4,4.4,0,0,1-2.09-.76,3.39,3.39,0,0,1-1.22-1.62,5.57,5.57,0,0,1,.54-4.52,3.39,3.39,0,0,1,1.56-1.29,4.85,4.85,0,0,1,4.4.59,2.72,2.72,0,0,1,1,1.84l-2,.53a1.89,1.89,0,0,0-.41-1.11,1.57,1.57,0,0,0-1-.42,1.67,1.67,0,0,0-1.48.49,3.1,3.1,0,0,0-.72,1.83,3.19,3.19,0,0,0,.25,1.95,1.62,1.62,0,0,0,1.31.82,1.69,1.69,0,0,0,1.12-.19,1.74,1.74,0,0,0,.67-1l1.87.78A3.13,3.13,0,0,1,162.61,144.15Z"/><path class="cls-1" d="M171.19,143.79l-2.83-.34-.79,1.78-2.15-.26,3.86-7.85,2.56.31,1.89,8.53-2.2-.26Zm-.27-1.51-.36-2-.21-1.33h0l-.49,1.24-.86,1.9Z"/><path class="cls-1" d="M182.36,145.33l-.2,1.65-6.24-.75,1-8.19,2.13.25-.78,6.54Z"/><path class="cls-1" d="M191.08,146.37l-.2,1.65-6.24-.75,1-8.19,2.13.25-.78,6.54Z"/><path class="cls-1" d="M200.09,147.45l-.2,1.65-6.54-.78,1-8.19,6.38.76-.2,1.65-4.24-.51-.2,1.66,3.38.4-.19,1.55-3.38-.4-.2,1.68Z"/><path class="cls-1" d="M214.49,143.61a5,5,0,0,1-.72,6.07,3.94,3.94,0,0,1-3.07.71l-3.48-.42,1-8.19,3.48.42A3.94,3.94,0,0,1,214.49,143.61Zm-2.23,4.7a3.85,3.85,0,0,0,.44-3.72,1.81,1.81,0,0,0-1.44-.8l-1.13-.13-.59,5,1.13.13A1.81,1.81,0,0,0,212.26,148.31Z"/><path class="cls-1" d="M224.1,150.31l-.2,1.65-6.54-.78,1-8.19,6.38.76-.2,1.65-4.24-.51-.2,1.66,3.38.4-.19,1.55-3.38-.4-.2,1.68Z"/><path class="cls-1" d="M238.23,146.08a2.53,2.53,0,0,1,.58,2.11,2.42,2.42,0,0,1-1.05,1.84,3.57,3.57,0,0,1-2.43.41l-1.63-.19-.34,2.84-2.13-.25,1-8.19,3.76.45A3.53,3.53,0,0,1,238.23,146.08Zm-2,2.62a1,1,0,0,0,.43-.79,1,1,0,0,0-.23-.85,1.63,1.63,0,0,0-1-.39l-1.29-.15-.26,2.17,1.29.15A1.62,1.62,0,0,0,236.24,148.7Z"/><path class="cls-1" d="M244.49,151.39l-1.28-.15-.36,3-2.1-.25,1-8.19,3.91.47a3.5,3.5,0,0,1,2.21.94,2.4,2.4,0,0,1,.57,2,2.58,2.58,0,0,1-.59,1.44,2.4,2.4,0,0,1-1.3.74l1.7,3.46-2.36-.28Zm-1.1-1.67,1.45.17a1.6,1.6,0,0,0,1-.13,1,1,0,0,0,.41-.76,1,1,0,0,0-.22-.82,1.59,1.59,0,0,0-1-.37l-1.45-.17Z"/><path class="cls-1" d="M257.29,154.28l-.2,1.65-6.54-.78,1-8.19,6.38.76-.2,1.65-4.24-.51-.2,1.66,3.38.4-.19,1.55-3.38-.4-.2,1.68Z"/><path class="cls-1" d="M265.58,156.44a4.14,4.14,0,0,1-2.37.34,4.4,4.4,0,0,1-2.09-.76,3.4,3.4,0,0,1-1.22-1.62,5.57,5.57,0,0,1,.54-4.52,3.39,3.39,0,0,1,1.56-1.29,4.86,4.86,0,0,1,4.4.59,2.72,2.72,0,0,1,1,1.84l-2,.53a1.89,1.89,0,0,0-.41-1.11,1.57,1.57,0,0,0-1-.42,1.67,1.67,0,0,0-1.48.49,3.1,3.1,0,0,0-.72,1.83,3.19,3.19,0,0,0,.25,1.95,1.62,1.62,0,0,0,1.31.82,1.69,1.69,0,0,0,1.12-.19,1.75,1.75,0,0,0,.67-1l1.87.78A3.13,3.13,0,0,1,265.58,156.44Z"/><path class="cls-1" d="M271.38,157.63l-2.13-.25,1-8.19,2.13.25Z"/><path class="cls-1" d="M279.35,156.71l-2.83-.34-.79,1.78-2.15-.26,3.86-7.85,2.56.31,1.89,8.53-2.2-.26Zm-.27-1.51-.36-2-.21-1.33h0l-.49,1.24-.86,1.9Z"/><path class="cls-1" d="M291.35,152.78a5,5,0,0,1-.72,6.07,3.94,3.94,0,0,1-3.07.71l-3.48-.42,1-8.19,3.48.42A3.94,3.94,0,0,1,291.35,152.78Zm-2.23,4.7a3.85,3.85,0,0,0,.44-3.72,1.81,1.81,0,0,0-1.44-.8l-1.13-.13-.59,5,1.13.13A1.81,1.81,0,0,0,289.12,157.48Z"/><path class="cls-1" d="M301,153.24a3.41,3.41,0,0,1,1.21,1.62,5.58,5.58,0,0,1-.54,4.53,3.4,3.4,0,0,1-1.56,1.29,4.87,4.87,0,0,1-4.29-.51,3.4,3.4,0,0,1-1.22-1.62,5.58,5.58,0,0,1,.54-4.53,3.4,3.4,0,0,1,1.56-1.29,4.86,4.86,0,0,1,4.29.51Zm-3.72,1.4a4.09,4.09,0,0,0-.45,3.8,1.77,1.77,0,0,0,2.72.33A4.13,4.13,0,0,0,300,155a1.58,1.58,0,0,0-1.28-.81A1.6,1.6,0,0,0,297.26,154.64Z"/><path class="cls-1" d="M310.69,154.24a4.4,4.4,0,0,1,1.4,1.31l-1.37,1.25a2.67,2.67,0,0,0-.85-1,2.83,2.83,0,0,0-1.29-.45,1.85,1.85,0,0,0-1,.11.68.68,0,0,0-.42.55.57.57,0,0,0,.31.55,4.78,4.78,0,0,0,1.21.5,5.5,5.5,0,0,1,2.32,1.2,2.06,2.06,0,0,1,.53,1.76,2.14,2.14,0,0,1-.61,1.3,2.77,2.77,0,0,1-1.34.72,5,5,0,0,1-1.82.09,6.32,6.32,0,0,1-2.22-.61,3.92,3.92,0,0,1-1.38-1.23l1.27-1.36a2.77,2.77,0,0,0,1,1.07,3.59,3.59,0,0,0,1.43.45,2.15,2.15,0,0,0,1-.07.61.61,0,0,0,.41-.51.54.54,0,0,0-.31-.51,5.23,5.23,0,0,0-1.18-.49,9.17,9.17,0,0,1-1.68-.71,2.57,2.57,0,0,1-1-.92,2,2,0,0,1-.23-1.31,2.4,2.4,0,0,1,.58-1.33,2.73,2.73,0,0,1,1.33-.8,4.85,4.85,0,0,1,1.93-.11A5.19,5.19,0,0,1,310.69,154.24Z"/><polygon class="cls-3" points="389.23 20.59 379.38 13.23 389.23 5.87 399.09 13.23 389.23 20.59"/><rect class="cls-4" x="384.4" y="10.78" width="9.66" height="4.89"/><path class="cls-5" d="M368.24,221.37H352.87v15.36h15.36Zm-10.56,4.8h5.76v5.76h-5.76Z"/><path class="cls-5" d="M265.55,230.85v1.66h-6.29v-8.25h2.15v6.59Z"/><path class="cls-5" d="M272.76,230.65h-2.85l-.58,1.86h-2.16l2.9-8.25h2.57l2.89,8.25h-2.21Zm-.45-1.46-.6-2-.36-1.3h0L271,227.2l-.62,2Z"/><path class="cls-5" d="M288.31,232a4.14,4.14,0,0,1-2.31.62,4.39,4.39,0,0,1-2.16-.51,3.4,3.4,0,0,1-1.4-1.46,5.57,5.57,0,0,1,0-4.56,3.39,3.39,0,0,1,1.4-1.47,4.86,4.86,0,0,1,4.44.06,2.72,2.72,0,0,1,1.24,1.71l-1.89.76a1.89,1.89,0,0,0-.54-1,1.57,1.57,0,0,0-1-.3,1.67,1.67,0,0,0-1.41.66,3.1,3.1,0,0,0-.5,1.91,3.19,3.19,0,0,0,.48,1.91,1.62,1.62,0,0,0,1.39.66,1.68,1.68,0,0,0,1.09-.33,1.74,1.74,0,0,0,.55-1l2,.55A3.14,3.14,0,0,1,288.31,232Z"/><path class="cls-5" d="M298.65,230.85v1.66h-6.59v-8.25h6.42v1.66h-4.27v1.68h3.4v1.56h-3.4v1.69Z"/><path class="cls-5" d="M308.63,232.51h-2.39L303.68,228l-.62-1.25h0l0,1.55v4.16h-1.9v-8.25h2.39l2.56,4.46.63,1.25h0l0-1.55v-4.16h1.9Z"/><path class="cls-5" d="M318.65,225.92H316v6.59h-2.15v-6.59h-2.7v-1.66h7.54Z"/><path class="cls-5" d="M324.52,229.5h-1.29v3h-2.11v-8.25h3.94a3.5,3.5,0,0,1,2.31.67,2.4,2.4,0,0,1,.81,2,2.59,2.59,0,0,1-.41,1.5,2.4,2.4,0,0,1-1.2.89l2.1,3.24h-2.37ZM323.23,228h1.46a1.61,1.61,0,0,0,1-.25,1,1,0,0,0,.31-.8,1,1,0,0,0-.31-.79,1.6,1.6,0,0,0-1-.25h-1.46Z"/><path class="cls-5" d="M335.71,230.65h-2.85l-.58,1.86h-2.16l2.9-8.25h2.57l2.89,8.25h-2.21Zm-.45-1.46-.6-2-.36-1.3h0l-.34,1.29-.62,2Z"/><path class="cls-5" d="M347,230.85v1.66H340.7v-8.25h2.15v6.59Z"/><path class="cls-5" d="M359.78,251.29V253h-6.59V244.7h6.42v1.66h-4.27V248h3.4v1.56h-3.4v1.69Z"/><path class="cls-5" d="M368.61,251.29V253h-6.29V244.7h2.15v6.59Z"/><path class="cls-5" d="M381.79,245.41a2.53,2.53,0,0,1,.83,2,2.41,2.41,0,0,1-.83,2,3.57,3.57,0,0,1-2.36.69h-1.64V253h-2.15V244.7h3.79A3.53,3.53,0,0,1,381.79,245.41Zm-1.67,2.84a1,1,0,0,0,.33-.83,1,1,0,0,0-.33-.82,1.63,1.63,0,0,0-1-.27h-1.3v2.19h1.3A1.63,1.63,0,0,0,380.12,248.25Z"/><path class="cls-5" d="M389.13,251.09h-2.85L385.7,253h-2.16l2.9-8.25H389L391.9,253h-2.21Zm-.45-1.46-.6-2-.36-1.3h0l-.34,1.29-.62,2Z"/><path class="cls-5" d="M399.94,246.36h-2.69V253H395.1v-6.59h-2.7V244.7h7.54Z"/><path class="cls-5" d="M404.56,253h-2.15V244.7h2.15Z"/><path class="cls-5" d="M413.49,245.08a3.4,3.4,0,0,1,1.39,1.46,5.58,5.58,0,0,1,0,4.56,3.4,3.4,0,0,1-1.39,1.46,4.86,4.86,0,0,1-4.32,0,3.4,3.4,0,0,1-1.4-1.46,5.58,5.58,0,0,1,0-4.56,3.4,3.4,0,0,1,1.4-1.46,4.86,4.86,0,0,1,4.32,0ZM410,246.91a4.09,4.09,0,0,0,0,3.82,1.6,1.6,0,0,0,1.38.65,1.58,1.58,0,0,0,1.37-.65,4.13,4.13,0,0,0,0-3.82,1.58,1.58,0,0,0-1.37-.65A1.6,1.6,0,0,0,410,246.91Z"/><path class="cls-5" d="M359.66,257a5,5,0,0,1,0,6.11,3.94,3.94,0,0,1-3,1.07h-3.5V256h3.5A3.94,3.94,0,0,1,359.66,257ZM358,262a3.85,3.85,0,0,0,0-3.75,1.81,1.81,0,0,0-1.52-.62h-1.14v5h1.14A1.81,1.81,0,0,0,358,262Z"/><path class="cls-5" d="M370,262.54v1.66h-6.59V256h6.42v1.66h-4.27v1.68H369v1.56h-3.4v1.69Z"/><path class="cls-5" d="M383.66,262.54v1.66h-6.29V256h2.15v6.59Z"/><path class="cls-5" d="M390.88,262.34H388l-.58,1.86h-2.16l2.9-8.25h2.57l2.89,8.25h-2.21Zm-.45-1.46-.6-2-.36-1.3h0l-.34,1.29-.62,2Z"/><path class="cls-5" d="M359.2,275a4.14,4.14,0,0,1-2.31.62,4.39,4.39,0,0,1-2.16-.51,3.4,3.4,0,0,1-1.4-1.46,5.57,5.57,0,0,1,0-4.56,3.39,3.39,0,0,1,1.4-1.47,4.86,4.86,0,0,1,4.44.06,2.72,2.72,0,0,1,1.24,1.71l-1.89.76a1.89,1.89,0,0,0-.54-1,1.57,1.57,0,0,0-1-.3,1.67,1.67,0,0,0-1.41.66,3.1,3.1,0,0,0-.5,1.91,3.19,3.19,0,0,0,.48,1.91,1.62,1.62,0,0,0,1.39.66,1.68,1.68,0,0,0,1.09-.33,1.74,1.74,0,0,0,.55-1l2,.55A3.14,3.14,0,0,1,359.2,275Z"/><path class="cls-5" d="M369.54,273.79v1.66H363V267.2h6.42v1.66H365.1v1.68h3.4v1.56h-3.4v1.69Z"/><path class="cls-5" d="M379.53,275.45h-2.39L374.58,271l-.62-1.25h0l0,1.55v4.16h-1.9V267.2h2.39l2.56,4.46.63,1.25h0l0-1.55V267.2h1.9Z"/><path class="cls-5" d="M389.54,268.86h-2.69v6.59H384.7v-6.59H382V267.2h7.54Z"/><path class="cls-5" d="M395.41,272.44h-1.29v3H392V267.2H396a3.5,3.5,0,0,1,2.31.67,2.4,2.4,0,0,1,.81,2,2.59,2.59,0,0,1-.41,1.5,2.4,2.4,0,0,1-1.2.89l2.1,3.24h-2.37Zm-1.29-1.52h1.46a1.61,1.61,0,0,0,1-.25,1,1,0,0,0,.31-.8,1,1,0,0,0-.31-.79,1.6,1.6,0,0,0-1-.25h-1.46Z"/><path class="cls-5" d="M406.6,273.59h-2.85l-.58,1.86H401l2.9-8.25h2.57l2.89,8.25h-2.21Zm-.45-1.46-.6-2-.36-1.3h0l-.34,1.29-.62,2Z"/><path class="cls-5" d="M417.88,273.79v1.66h-6.29V267.2h2.15v6.59Z"/><path class="cls-1" d="M263.82,419.66a4.15,4.15,0,0,1-.3,2.38,4.39,4.39,0,0,1-1.29,1.81,3.39,3.39,0,0,1-1.88.74,5.57,5.57,0,0,1-4.22-1.73,3.39,3.39,0,0,1-.83-1.85,4.38,4.38,0,0,1,.35-2.18,4.33,4.33,0,0,1,1.39-1.9,2.72,2.72,0,0,1,2-.5v2a1.89,1.89,0,0,0-1.17.1,1.57,1.57,0,0,0-.67.84,1.67,1.67,0,0,0,.07,1.56,3.1,3.1,0,0,0,1.58,1.18,3.19,3.19,0,0,0,1.95.28,1.62,1.62,0,0,0,1.14-1,1.68,1.68,0,0,0,.11-1.13,1.74,1.74,0,0,0-.74-.9l1.25-1.6A3.14,3.14,0,0,1,263.82,419.66Z"/><path class="cls-1" d="M265.77,411.29l-1.08,2.64,1.51,1.24-.82,2-6.53-5.81,1-2.38,8.73.46-.84,2Zm-1.52-.14-2.05-.19-1.34-.16v0l1.06.8,1.6,1.33Z"/><path class="cls-1" d="M270.23,400.94l1.54.63-2.38,5.82-7.63-3.13.82-2,6.1,2.5Z"/><path class="cls-1" d="M273.56,392.82l1.54.63-2.38,5.82-7.63-3.13.81-2,6.1,2.5Z"/><path class="cls-1" d="M277,384.42l1.54.63-2.5,6.1L268.4,388l2.44-5.95,1.54.63-1.62,4,1.55.64,1.29-3.15,1.45.59-1.29,3.15,1.56.64Z"/><path class="cls-1" d="M276.68,369.67a2.53,2.53,0,0,1,2.19,0,2.42,2.42,0,0,1,1.5,1.5,3.57,3.57,0,0,1-.25,2.45l-.62,1.52,2.65,1.08-.82,2-7.63-3.13,1.44-3.5A3.53,3.53,0,0,1,276.68,369.67Zm2,2.62a1,1,0,0,0-.64-.62,1,1,0,0,0-.88,0,1.62,1.62,0,0,0-.64.85l-.49,1.2,2,.83.49-1.2A1.63,1.63,0,0,0,278.68,372.29Z"/><path class="cls-1" d="M279.91,360.94a3.4,3.4,0,0,1,1.88-.74,5.58,5.58,0,0,1,4.22,1.73,3.41,3.41,0,0,1,.83,1.84,4.86,4.86,0,0,1-1.64,4,3.4,3.4,0,0,1-1.88.74,5.58,5.58,0,0,1-4.22-1.73,3.4,3.4,0,0,1-.82-1.85,4.86,4.86,0,0,1,1.64-4Zm.36,4a4.09,4.09,0,0,0,3.54,1.45,1.77,1.77,0,0,0,1-2.54,4.13,4.13,0,0,0-3.54-1.45,1.58,1.58,0,0,0-1.12,1A1.6,1.6,0,0,0,280.27,364.9Z"/><path class="cls-1" d="M283.47,351.85a4.39,4.39,0,0,1,1.64-1l.84,1.65a2.67,2.67,0,0,0-1.22.55,2.82,2.82,0,0,0-.78,1.12,1.85,1.85,0,0,0-.17,1,.68.68,0,0,0,.42.55.57.57,0,0,0,.61-.15,4.82,4.82,0,0,0,.81-1,5.5,5.5,0,0,1,1.77-1.92,2.06,2.06,0,0,1,1.84,0,2.14,2.14,0,0,1,1.09.93,2.79,2.79,0,0,1,.34,1.48,5,5,0,0,1-.4,1.77,6.32,6.32,0,0,1-1.18,2,3.93,3.93,0,0,1-1.55,1l-1-1.59a2.77,2.77,0,0,0,1.3-.66,3.57,3.57,0,0,0,.81-1.26,2.15,2.15,0,0,0,.21-1,.61.61,0,0,0-.38-.53.54.54,0,0,0-.57.16,5.23,5.23,0,0,0-.78,1,9.2,9.2,0,0,1-1.13,1.43,2.59,2.59,0,0,1-1.14.69,2.05,2.05,0,0,1-1.32-.13,2.4,2.4,0,0,1-1.13-.91,2.73,2.73,0,0,1-.42-1.5,4.83,4.83,0,0,1,.41-1.89A5.16,5.16,0,0,1,283.47,351.85Z"/><path class="cls-1" d="M288.91,342.35l-1,2.49,6.1,2.5-.81,2-6.1-2.5-1,2.5-1.54-.63,2.86-7Z"/><path class="cls-1" d="M296.76,340.56l-.82,2-7.63-3.13.81-2Z"/><path class="cls-1" d="M296.6,329.18l4.13,1.69-.57,1.39-.93-.31a2.6,2.6,0,0,1,.12,2.6,4,4,0,0,1-1.21,1.66,3.38,3.38,0,0,1-1.85.71,5,5,0,0,1-2.31-.42,4.87,4.87,0,0,1-1.92-1.33,3.49,3.49,0,0,1-.82-1.88,4.45,4.45,0,0,1,.35-2.22,4.52,4.52,0,0,1,1.33-1.92,3.38,3.38,0,0,1,2-.65l0,2.14a1.53,1.53,0,0,0-1.06.17,1.69,1.69,0,0,0-.67.83,1.74,1.74,0,0,0,0,1.59,3.07,3.07,0,0,0,1.58,1.19q2.41,1,3.17-.89a2,2,0,0,0,.14-1.27,1.19,1.19,0,0,0-.76-.82l-.12,0-.78,1.9-1.34-.55Z"/><path class="cls-1" d="M296.77,319.8a3.41,3.41,0,0,1,1.88-.74,5.59,5.59,0,0,1,4.22,1.73,3.41,3.41,0,0,1,.82,1.84,4.86,4.86,0,0,1-1.64,4,3.39,3.39,0,0,1-1.88.74,5.58,5.58,0,0,1-4.22-1.73,3.4,3.4,0,0,1-.82-1.85,4.86,4.86,0,0,1,1.64-4Zm.36,4a4.09,4.09,0,0,0,3.54,1.45,1.77,1.77,0,0,0,1-2.54,4.14,4.14,0,0,0-3.54-1.45,1.58,1.58,0,0,0-1.12,1A1.6,1.6,0,0,0,297.12,323.76Z"/><path class="cls-1" d="M280.94,426.18a5,5,0,0,1,5.66,2.32,3.94,3.94,0,0,1-.14,3.15l-1.33,3.24-7.63-3.13,1.33-3.24A3.94,3.94,0,0,1,280.94,426.18Zm3.94,3.4a3.85,3.85,0,0,0-3.47-1.42,1.81,1.81,0,0,0-1.16,1.17l-.43,1.05,4.63,1.9.43-1.05A1.81,1.81,0,0,0,284.88,429.58Z"/><path class="cls-1" d="M290,418.7l1.54.63-2.5,6.1-7.63-3.13,2.44-5.95,1.54.63-1.62,4,1.55.64,1.29-3.15L288,419l-1.29,3.15,1.56.64Z"/><path class="cls-1" d="M288.86,404.62a4.4,4.4,0,0,1,1.64-1l.84,1.65a2.66,2.66,0,0,0-1.22.55,2.82,2.82,0,0,0-.78,1.12,1.84,1.84,0,0,0-.17,1,.68.68,0,0,0,.42.55.57.57,0,0,0,.61-.15,4.77,4.77,0,0,0,.81-1,5.5,5.5,0,0,1,1.77-1.92,2.06,2.06,0,0,1,1.84,0,2.14,2.14,0,0,1,1.09.93,2.78,2.78,0,0,1,.34,1.48,5,5,0,0,1-.4,1.77,6.32,6.32,0,0,1-1.18,2,3.93,3.93,0,0,1-1.55,1l-1-1.59a2.78,2.78,0,0,0,1.3-.66,3.57,3.57,0,0,0,.81-1.26,2.15,2.15,0,0,0,.21-1,.61.61,0,0,0-.38-.53.54.54,0,0,0-.57.16,5.25,5.25,0,0,0-.78,1,9.23,9.23,0,0,1-1.13,1.43,2.57,2.57,0,0,1-1.14.69,2,2,0,0,1-1.33-.13,2.4,2.4,0,0,1-1.12-.91,2.74,2.74,0,0,1-.42-1.5,4.82,4.82,0,0,1,.4-1.89A5.19,5.19,0,0,1,288.86,404.62Z"/><path class="cls-1" d="M297.88,398.87l-1.08,2.64,1.51,1.24-.82,2L291,398.93l1-2.38,8.73.46-.84,2Zm-1.52-.14-2.05-.19-1.34-.16v0l1.06.8,1.6,1.33Z"/><path class="cls-1" d="M304.31,388.07l-.91,2.21-5.1.68-1.39.1h0l1.45.54,3.85,1.58L301.5,395l-7.63-3.13.91-2.21,5.1-.68,1.39-.1h0l-1.45-.54L296,386.7l.72-1.76Z"/><path class="cls-1" d="M310.93,371.93l-.72,1.76-3.5-1.44-2.32-1v0l5.08,4.28-.66,1.61-6.63-.51v0l2.37.9L308,379l-.73,1.77-7.63-3.13,1.16-2.83,4.38.39,1.79.24v0l-1.43-1.1-3.41-2.79,1.11-2.72Z"/><path class="cls-1" d="M312.16,364l-1.08,2.64,1.51,1.24-.82,2-6.53-5.81,1-2.38,8.73.46-.84,2Zm-1.52-.14-2.05-.19-1.34-.16v0l1.06.8,1.6,1.33Z"/><path class="cls-1" d="M314.28,355.81l-.49,1.19,2.79,1.14-.8,2L308.14,357l1.49-3.64a3.5,3.5,0,0,1,1.5-1.88,2.4,2.4,0,0,1,2.11,0,2.59,2.59,0,0,1,1.23,1,2.4,2.4,0,0,1,.37,1.45l3.79-.72-.9,2.2Zm-1.9.61.55-1.35a1.61,1.61,0,0,0,.15-1,1,1,0,0,0-.62-.59,1,1,0,0,0-.85,0,1.61,1.61,0,0,0-.61.83l-.55,1.35Z"/><path class="cls-1" d="M316,342.14l-1,2.49,6.1,2.5-.82,2-6.1-2.5-1,2.5-1.54-.63,2.86-7Z"/><path class="cls-1" d="M313.94,335.51l1.4,1.82-.59,1.43-1.58-1.39Zm9.93,4.85-.82,2-7.63-3.13.81-2Z"/><path class="cls-1" d="M327.85,330.63l-.91,2.21-5.1.68-1.39.1h0l1.45.54,3.85,1.58-.72,1.76-7.63-3.13.91-2.21,5.1-.68,1.39-.1h0l-1.45-.54-3.85-1.58.72-1.76Z"/></svg>