<svg id="Capa_1" data-name="Capa 1" xmlns="http://www.w3.org/2000/svg" viewBox="0 0 272 822"><defs><style>.cls-1{fill:#5d89b4;}.cls-2{fill:#2e4057;}</style></defs><title>Desayuno Logo Exp</title><path class="cls-1" d="M272,0H22V22H0V822H250V800h22ZM244,816H6V28H22V800H244Zm0-22H28V28H244Zm22,0H250V22H28V6H266Z"/><g id="_Grupo_" data-name="&lt;Grupo&gt;"><path id="_Trazado_compuesto_" data-name="&lt;Trazado compuesto&gt;" class="cls-2" d="M109.45,663.24h8.72V689h12.32V671.48h8.65V689h14.92V663.24h8.72v35.89H109.45Z"/><path id="_Trazado_compuesto_2" data-name="&lt;Trazado compuesto&gt;" class="cls-2" d="M109.45,634.22H154V608.88h8.8v35.51H109.45Z"/><path id="_Trazado_compuesto_3" data-name="&lt;Trazado compuesto&gt;" class="cls-2" d="M109.45,524.27c0-17,5.74-25.34,26.48-25.34s26.86,8.32,26.86,25.34v15.87H109.45Zm8.72,1V530h35.89v-4.7c0-11.86-3-15.48-18.06-15.48C120.31,509.79,118.17,513.4,118.17,525.27Z"/><path id="_Trazado_compuesto_4" data-name="&lt;Trazado compuesto&gt;" class="cls-2" d="M109.45,447.65h8.72v25.73h12.32V455.89h8.65v17.48h14.92V447.65h8.72v35.89H109.45Z"/><path id="_Trazado_compuesto_5" data-name="&lt;Trazado compuesto&gt;" class="cls-2" d="M119.24,396.52c-1.07,3-1.91,8.78-1.91,14.17,0,8.55,1.76,12.09,7,12.09,4.05,0,5.89-2,6.81-11.78,1.3-12.48,5.89-18,16-18,12.55,0,16.76,7.7,16.76,23.18a57,57,0,0,1-2.37,16.71l-8.72-2.23a53.1,53.1,0,0,0,1.91-14.33c0-8.55-1.53-12.4-7-12.4-4,0-6.51,1.93-7.42,12.24-1.15,11.86-4.82,17.41-14.69,17.41-12.55,0-17.37-7.85-17.37-22.88a57.56,57.56,0,0,1,2.37-16.41Z"/><path id="_Trazado_compuesto_6" data-name="&lt;Trazado compuesto&gt;" class="cls-2" d="M149.47,351v18c4.74,1.31,9.26,2.62,13.31,3.54v9.86c-15.92-4.24-37.42-10.86-53.34-16.41v-13.4c17.14-4.7,39-11.33,53.34-16.41V346.7C159,347.94,154.37,349.48,149.47,351Zm-29.77,9.63c6.89,2.23,13.62,4.24,21.12,6.16V353.56c-7.88,2.23-14.23,3.77-21.12,5.31Z"/><path id="_Trazado_compuesto_7" data-name="&lt;Trazado compuesto&gt;" class="cls-2" d="M129.8,304.59c-7.19-4.47-14.46-8.78-20.36-11.86v-10.4c9.18,5.16,20.13,11.71,30.3,18.26h23v8.55h-23c-10.87,6.47-22.57,13.79-30.38,19.25V317.22C115.11,313.37,122.38,308.9,129.8,304.59Z"/><path id="_Trazado_compuesto_8" data-name="&lt;Trazado compuesto&gt;" class="cls-2" d="M146.64,231.28c14,0,17.22,8.55,17.22,20.26s-3.21,20.26-17.22,20.26H109.45V261.55h35.66c7.12,0,9.49-3.16,9.49-10,0-6.4-2-10.09-9.49-10.09H109.45V231.35Z"/><path id="_Trazado_compuesto_9" data-name="&lt;Trazado compuesto&gt;" class="cls-2" d="M162.78,178.53v10.09c-13.31,6.08-23.88,11.24-37.11,18.33h37.11v9.55H109.45V205.65c12.17-6.55,22.42-11.55,35.43-17.41H109.45v-9.7Z"/><path id="_Trazado_compuesto_10" data-name="&lt;Trazado compuesto&gt;" class="cls-2" d="M135.62,122.86c22,0,28.24,6.93,28.24,20.72s-6.2,20.64-28.24,20.64c-21.65,0-27.47-7-27.47-20.64C108.15,129.8,114,122.86,135.62,122.86Zm.15,10.24c-16.15,0-18.52,2.39-18.52,10.48,0,7.93,2.37,10.32,18.52,10.32s19-2.39,19-10.32C154.75,135.5,151.84,133.11,135.77,133.11Z"/></g></svg>