<svg id="Capa_1" data-name="Capa 1" xmlns="http://www.w3.org/2000/svg" viewBox="0 0 272 822"><defs><style>.cls-1{fill:#2e4057;}</style></defs><title>El patio Logo Exp 03</title><path class="cls-1" d="M272,0H22V22H0V822H250V800h22ZM243,815H7V29H22V800H243Zm0-22H29V29H243Zm22,0H250V22H29V7H265Z"/><g id="_Grupo_" data-name="&lt;Grupo&gt;"><path id="_Trazado_compuesto_" data-name="&lt;Trazado compuesto&gt;" class="cls-1" d="M144.8,694.41h-68v-44.8H88.63v31.52h16V654.29h11.84v26.84H133V649.61H144.8Z"/><path id="_Trazado_compuesto_2" data-name="&lt;Trazado compuesto&gt;" class="cls-1" d="M144.8,610.1h-68V596.82H133V566H144.8Z"/><path id="_Trazado_compuesto_3" data-name="&lt;Trazado compuesto&gt;" class="cls-1" d="M119.2,453.61v13.09h25.6V480h-68V453.61c0-14,9.65-22.45,21.2-22.45S119.2,439.57,119.2,453.61Zm-30.57.67v12.42h18.63V454.28c0-6-3.72-9.84-9.26-9.84S88.63,448.26,88.63,454.28Z"/><path id="_Trazado_compuesto_4" data-name="&lt;Trazado compuesto&gt;" class="cls-1" d="M144.8,358.85l-12,4V387l12,4.11V405l-68-24.74V369.83l68-24.84ZM96.85,374.7l24.74,8.6V366.39Z"/><path id="_Trazado_compuesto_5" data-name="&lt;Trazado compuesto&gt;" class="cls-1" d="M88.63,289.11H144.8v13.28H88.63v17.77H76.79V271.34H88.63Z"/><path id="_Trazado_compuesto_6" data-name="&lt;Trazado compuesto&gt;" class="cls-1" d="M144.8,232.61h-68V219.34h68Z"/><path id="_Trazado_compuesto_7" data-name="&lt;Trazado compuesto&gt;" class="cls-1" d="M137.92,134.37a26.41,26.41,0,0,1,0,36.77c-6.88,6.88-15.38,6.69-27.13,6.69s-20.25.19-27.13-6.69a26.41,26.41,0,0,1,0-36.77c6.88-6.88,15.38-6.78,27.13-6.78S131,127.49,137.92,134.37Zm-46.23,9.84a11,11,0,0,0-3.63,8.5,11.25,11.25,0,0,0,3.63,8.6c2.87,2.58,6,3.25,19.1,3.25s16.24-.67,19.1-3.25a11.25,11.25,0,0,0,3.63-8.6,11,11,0,0,0-3.63-8.5c-2.87-2.58-6-3.34-19.1-3.34S94.55,141.63,91.69,144.21Z"/></g><g id="_Grupo_2" data-name="&lt;Grupo&gt;"><path id="_Trazado_compuesto_8" data-name="&lt;Trazado compuesto&gt;" class="cls-1" d="M195.5,651.79V664a3,3,0,0,1-2.82,2.82H164.89a3,3,0,0,1-2.82-2.82V651.79c0-5,3.33-8.75,8.75-8.75h15.93C192.17,643,195.5,646.82,195.5,651.79Zm-24.68-3.11c-2.15,0-3.16,1.07-3.16,3.11v9.43h22.25v-9.43c0-2-1-3.11-3.16-3.11Z"/><path id="_Trazado_compuesto_9" data-name="&lt;Trazado compuesto&gt;" class="cls-1" d="M195.5,603.21v17.56a3,3,0,0,1-2.82,2.82H164.84a3,3,0,0,1-2.82-2.82v-17a2.72,2.72,0,0,1,2.82-2.82,2.68,2.68,0,0,1,2.77,2.82V618h8.13v-5.82a2.82,2.82,0,0,1,5.65,0V618h8.53V603.21a2.68,2.68,0,0,1,2.77-2.82A2.72,2.72,0,0,1,195.5,603.21Z"/><path id="_Trazado_compuesto_10" data-name="&lt;Trazado compuesto&gt;" class="cls-1" d="M195.5,525.17v18.36a3,3,0,0,1-2.82,2.82h-28a2.83,2.83,0,1,1,0-5.65h25.19V525.17a2.71,2.71,0,0,1,2.77-2.94A2.75,2.75,0,0,1,195.5,525.17Z"/><path id="_Trazado_compuesto_11" data-name="&lt;Trazado compuesto&gt;" class="cls-1" d="M195.79,483.94a2.64,2.64,0,0,1-2.32,2.65L187,487.78v9.94l6.5,1.36a2.68,2.68,0,0,1,2.2,2.71,2.78,2.78,0,0,1-2.71,2.88,3.22,3.22,0,0,1-.73-.06l-25.92-5.7c-3.11-.68-4.57-3.11-4.57-6.38,0-3.84,1.75-5.54,4.57-6.38,0,0,17.34-3.39,26-5a2.74,2.74,0,0,1,.68-.06A2.78,2.78,0,0,1,195.79,483.94ZM168,491.34c-.51.11-.73.4-.73,1.07s.11,1,.73,1.13l13.39,3V488.8Z"/><path id="_Trazado_compuesto_12" data-name="&lt;Trazado compuesto&gt;" class="cls-1" d="M172.91,405.79a2.63,2.63,0,0,1-2.49,2.77,2.74,2.74,0,0,0-2.77,3.11v6.21a2.82,2.82,0,0,0,3.16,3.11h15.93a2.82,2.82,0,0,0,3.16-3.11v-6.21a2.74,2.74,0,0,0-2.77-3.11,2.63,2.63,0,0,1-2.49-2.77,2.74,2.74,0,0,1,2.77-2.82,3.75,3.75,0,0,1,.79.06c4.69.62,7.29,4.24,7.29,8.64v6.21a8.38,8.38,0,0,1-8.75,8.7H170.82a8.38,8.38,0,0,1-8.75-8.7v-6.21c0-4.41,2.6-8,7.29-8.64a3.75,3.75,0,0,1,.79-.06A2.74,2.74,0,0,1,172.91,405.79Z"/><path id="_Trazado_compuesto_13" data-name="&lt;Trazado compuesto&gt;" class="cls-1" d="M195.5,363.2v17.56a3,3,0,0,1-2.82,2.82H164.84a3,3,0,0,1-2.82-2.82v-17a2.72,2.72,0,0,1,2.82-2.82,2.68,2.68,0,0,1,2.77,2.82v14.18h8.13v-5.82a2.82,2.82,0,0,1,5.65,0v5.82h8.53V363.2a2.68,2.68,0,0,1,2.77-2.82A2.72,2.72,0,0,1,195.5,363.2Z"/><path id="_Trazado_compuesto_14" data-name="&lt;Trazado compuesto&gt;" class="cls-1" d="M195.56,321.51v2.26a3.79,3.79,0,0,1-1.58,2.54l-21.46,9.94L193,336.2a2.82,2.82,0,1,1,0,5.65H164.89a3,3,0,0,1-2.82-2.82v-2.26a3.67,3.67,0,0,1,1.58-2.54l21.57-9.94-20.5.06a2.82,2.82,0,1,1,0-5.65h28A3,3,0,0,1,195.56,321.51Z"/><path id="_Trazado_compuesto_15" data-name="&lt;Trazado compuesto&gt;" class="cls-1" d="M167.66,278.36v6.78H193a2.82,2.82,0,1,1,0,5.65h-25.3v6.78a2.68,2.68,0,0,1-2.77,2.82,2.72,2.72,0,0,1-2.82-2.82v-19.2a2.72,2.72,0,0,1,2.82-2.82A2.68,2.68,0,0,1,167.66,278.36Z"/><path id="_Trazado_compuesto_16" data-name="&lt;Trazado compuesto&gt;" class="cls-1" d="M180.65,238l11.41-3.84a3.21,3.21,0,0,1,1-.17,2.83,2.83,0,0,1,2.71,2.94,2.53,2.53,0,0,1-1.86,2.54l-12.14,4.12v8.19H193a2.82,2.82,0,1,1,0,5.65H164.89a3,3,0,0,1-2.82-2.82V242.49c0-5,3.33-8.75,8.75-8.75H173A8.18,8.18,0,0,1,180.65,238Zm-9.83,1.36c-2.15,0-3.16,1.07-3.16,3.11v9.32h8.47v-9.32c0-2-1-3.11-3.11-3.11Z"/><path id="_Trazado_compuesto_17" data-name="&lt;Trazado compuesto&gt;" class="cls-1" d="M195.79,194.48a2.64,2.64,0,0,1-2.32,2.65L187,198.32v9.94l6.5,1.36a2.68,2.68,0,0,1,2.2,2.71,2.78,2.78,0,0,1-2.71,2.88,3.22,3.22,0,0,1-.73-.06l-25.92-5.7c-3.11-.68-4.57-3.11-4.57-6.38,0-3.84,1.75-5.53,4.57-6.38,0,0,17.34-3.39,26-5a2.74,2.74,0,0,1,.68-.06A2.78,2.78,0,0,1,195.79,194.48ZM168,201.88c-.51.11-.73.4-.73,1.07s.11,1,.73,1.13l13.39,3v-7.74Z"/><path id="_Trazado_compuesto_18" data-name="&lt;Trazado compuesto&gt;" class="cls-1" d="M195.5,151v18.36a3,3,0,0,1-2.82,2.82h-28a2.83,2.83,0,1,1,0-5.65h25.19V151a2.71,2.71,0,0,1,2.77-2.94A2.75,2.75,0,0,1,195.5,151Z"/></g></svg>