<svg width="822" height="272" data-name="Capa 1" version="1.1" viewBox="0 0 822 272" xmlns="http://www.w3.org/2000/svg">
 <defs>
  <style>.cls-1{fill:#fff;}</style>
 </defs>
 <title>El patio Logo Exp 02</title>
 <g transform="rotate(90,411,411)">
  <path class="cls-1" d="m272 0h-250v22h-22v800h250v-22h22zm-29 815h-236v-786h15v771h221zm0-22h-214v-764h214zm22 0h-15v-771h-221v-15h236z"/>
  <g id="_Grupo_" data-name="&lt;Grupo&gt;">
   <path id="_Trazado_compuesto_" class="cls-1" d="m144.8 694.41h-68v-44.8h11.83v31.52h16v-26.84h11.84v26.84h16.53v-31.52h11.8z" data-name="&lt;Trazado compuesto&gt;"/>
   <path class="cls-1" d="m144.8 610.1h-68v-13.28h56.2v-30.82h11.8z" data-name="&lt;Trazado compuesto&gt;"/>
   <path class="cls-1" d="m119.2 453.61v13.09h25.6v13.3h-68v-26.39c0-14 9.65-22.45 21.2-22.45s21.2 8.41 21.2 22.45zm-30.57 0.67v12.42h18.63v-12.42c0-6-3.72-9.84-9.26-9.84s-9.37 3.82-9.37 9.84z" data-name="&lt;Trazado compuesto&gt;"/>
   <path class="cls-1" d="m144.8 358.85-12 4v24.15l12 4.11v13.89l-68-24.74v-10.43l68-24.84zm-47.95 15.85 24.74 8.6v-16.91z" data-name="&lt;Trazado compuesto&gt;"/>
   <path class="cls-1" d="m88.63 289.11h56.17v13.28h-56.17v17.77h-11.84v-48.82h11.84z" data-name="&lt;Trazado compuesto&gt;"/>
   <path class="cls-1" d="m144.8 232.61h-68v-13.27h68z" data-name="&lt;Trazado compuesto&gt;"/>
   <path class="cls-1" d="m137.92 134.37a26.41 26.41 0 0 1 0 36.77c-6.88 6.88-15.38 6.69-27.13 6.69s-20.25 0.19-27.13-6.69a26.41 26.41 0 0 1 0-36.77c6.88-6.88 15.38-6.78 27.13-6.78s20.21-0.1 27.13 6.78zm-46.23 9.84a11 11 0 0 0-3.63 8.5 11.25 11.25 0 0 0 3.63 8.6c2.87 2.58 6 3.25 19.1 3.25s16.24-0.67 19.1-3.25a11.25 11.25 0 0 0 3.63-8.6 11 11 0 0 0-3.63-8.5c-2.87-2.58-6-3.34-19.1-3.34s-16.24 0.76-19.1 3.34z" data-name="&lt;Trazado compuesto&gt;"/>
  </g>
  <g data-name="&lt;Grupo&gt;">
   <path class="cls-1" d="m195.5 651.79v12.21a3 3 0 0 1-2.82 2.82h-27.79a3 3 0 0 1-2.82-2.82v-12.21c0-5 3.33-8.75 8.75-8.75h15.93c5.42-0.04 8.75 3.78 8.75 8.75zm-24.68-3.11c-2.15 0-3.16 1.07-3.16 3.11v9.43h22.25v-9.43c0-2-1-3.11-3.16-3.11z" data-name="&lt;Trazado compuesto&gt;"/>
   <path class="cls-1" d="m195.5 603.21v17.56a3 3 0 0 1-2.82 2.82h-27.84a3 3 0 0 1-2.82-2.82v-17a2.72 2.72 0 0 1 2.82-2.82 2.68 2.68 0 0 1 2.77 2.82v14.23h8.13v-5.82a2.825 2.825 0 0 1 5.65 0v5.82h8.53v-14.79a2.68 2.68 0 0 1 2.77-2.82 2.72 2.72 0 0 1 2.81 2.82z" data-name="&lt;Trazado compuesto&gt;"/>
   <path class="cls-1" d="m195.5 525.17v18.36a3 3 0 0 1-2.82 2.82h-28a2.83 2.83 0 1 1 0-5.65h25.19v-15.53a2.71 2.71 0 0 1 2.77-2.94 2.75 2.75 0 0 1 2.86 2.94z" data-name="&lt;Trazado compuesto&gt;"/>
   <path class="cls-1" d="m195.79 483.94a2.64 2.64 0 0 1-2.32 2.65l-6.47 1.19v9.94l6.5 1.36a2.68 2.68 0 0 1 2.2 2.71 2.78 2.78 0 0 1-2.71 2.88 3.22 3.22 0 0 1-0.73-0.06l-25.92-5.7c-3.11-0.68-4.57-3.11-4.57-6.38 0-3.84 1.75-5.54 4.57-6.38 0 0 17.34-3.39 26-5a2.74 2.74 0 0 1 0.68-0.06 2.78 2.78 0 0 1 2.77 2.85zm-27.79 7.4c-0.51 0.11-0.73 0.4-0.73 1.07s0.11 1 0.73 1.13l13.39 3v-7.74z" data-name="&lt;Trazado compuesto&gt;"/>
   <path class="cls-1" d="m172.91 405.79a2.63 2.63 0 0 1-2.49 2.77 2.74 2.74 0 0 0-2.77 3.11v6.21a2.82 2.82 0 0 0 3.16 3.11h15.93a2.82 2.82 0 0 0 3.16-3.11v-6.21a2.74 2.74 0 0 0-2.77-3.11 2.63 2.63 0 0 1-2.49-2.77 2.74 2.74 0 0 1 2.77-2.82 3.75 3.75 0 0 1 0.79 0.06c4.69 0.62 7.29 4.24 7.29 8.64v6.21a8.38 8.38 0 0 1-8.75 8.7h-15.92a8.38 8.38 0 0 1-8.75-8.7v-6.21c0-4.41 2.6-8 7.29-8.64a3.75 3.75 0 0 1 0.79-0.06 2.74 2.74 0 0 1 2.76 2.82z" data-name="&lt;Trazado compuesto&gt;"/>
   <path class="cls-1" d="m195.5 363.2v17.56a3 3 0 0 1-2.82 2.82h-27.84a3 3 0 0 1-2.82-2.82v-17a2.72 2.72 0 0 1 2.82-2.82 2.68 2.68 0 0 1 2.77 2.82v14.18h8.13v-5.82a2.825 2.825 0 0 1 5.65 0v5.82h8.53v-14.74a2.68 2.68 0 0 1 2.77-2.82 2.72 2.72 0 0 1 2.81 2.82z" data-name="&lt;Trazado compuesto&gt;"/>
   <path class="cls-1" d="m195.56 321.51v2.26a3.79 3.79 0 0 1-1.58 2.54l-21.46 9.94 20.48-0.05a2.825 2.825 0 1 1 0 5.65h-28.11a3 3 0 0 1-2.82-2.82v-2.26a3.67 3.67 0 0 1 1.58-2.54l21.57-9.94-20.5 0.06a2.825 2.825 0 1 1 0-5.65h28a3 3 0 0 1 2.84 2.81z" data-name="&lt;Trazado compuesto&gt;"/>
   <path class="cls-1" d="m167.66 278.36v6.78h25.34a2.825 2.825 0 1 1 0 5.65h-25.3v6.78a2.68 2.68 0 0 1-2.77 2.82 2.72 2.72 0 0 1-2.82-2.82v-19.2a2.72 2.72 0 0 1 2.82-2.82 2.68 2.68 0 0 1 2.73 2.81z" data-name="&lt;Trazado compuesto&gt;"/>
   <path class="cls-1" d="m180.65 238 11.41-3.84a3.21 3.21 0 0 1 1-0.17 2.83 2.83 0 0 1 2.71 2.94 2.53 2.53 0 0 1-1.86 2.54l-12.14 4.12v8.19h11.23a2.825 2.825 0 1 1 0 5.65h-28.11a3 3 0 0 1-2.82-2.82v-12.12c0-5 3.33-8.75 8.75-8.75h2.18a8.18 8.18 0 0 1 7.65 4.26zm-9.83 1.36c-2.15 0-3.16 1.07-3.16 3.11v9.32h8.47v-9.32c0-2-1-3.11-3.11-3.11z" data-name="&lt;Trazado compuesto&gt;"/>
   <path class="cls-1" d="m195.79 194.48a2.64 2.64 0 0 1-2.32 2.65l-6.47 1.19v9.94l6.5 1.36a2.68 2.68 0 0 1 2.2 2.71 2.78 2.78 0 0 1-2.71 2.88 3.22 3.22 0 0 1-0.73-0.06l-25.92-5.7c-3.11-0.68-4.57-3.11-4.57-6.38 0-3.84 1.75-5.53 4.57-6.38 0 0 17.34-3.39 26-5a2.74 2.74 0 0 1 0.68-0.06 2.78 2.78 0 0 1 2.77 2.85zm-27.79 7.4c-0.51 0.11-0.73 0.4-0.73 1.07s0.11 1 0.73 1.13l13.39 3v-7.74z" data-name="&lt;Trazado compuesto&gt;"/>
   <path class="cls-1" d="m195.5 151v18.36a3 3 0 0 1-2.82 2.82h-28a2.83 2.83 0 1 1 0-5.65h25.19v-15.53a2.71 2.71 0 0 1 2.77-2.94 2.75 2.75 0 0 1 2.86 2.94z" data-name="&lt;Trazado compuesto&gt;"/>
  </g>
 </g>
</svg>
