<svg id="Capa_1" data-name="Capa 1" xmlns="http://www.w3.org/2000/svg" viewBox="0 0 272 822"><defs><style>.cls-1{fill:#2e4057;}</style></defs><title>Picapica Logo Exp</title><path class="cls-1" d="M272,0H22V22H0V822H250V800h22ZM244,816H6V28H22V800H244Zm0-22H28V28H244Zm22,0H250V22H28V6H266Z"/><g id="_Grupo_" data-name="&lt;Grupo&gt;"><path id="_Trazado_compuesto_" data-name="&lt;Trazado compuesto&gt;" class="cls-1" d="M109.36,663.65h8.75V689.3h12.36V671.87h8.68V689.3h15V663.65h8.75v35.79H109.36Z"/><path id="_Trazado_compuesto_2" data-name="&lt;Trazado compuesto&gt;" class="cls-1" d="M109.36,634.71H154V609.44h8.83v35.41H109.36Z"/><path id="_Trazado_compuesto_3" data-name="&lt;Trazado compuesto&gt;" class="cls-1" d="M162.87,538.66H109.36V515.39c0-11.29,7.91-14.9,18.35-14.9,9.21,0,17.51,4.38,17.51,14.67v13.36h17.66Zm-26.11-20.43c0-4.23-3.07-6.6-9.14-6.6-6.53,0-9.68,2.23-9.68,6.37v10.52h18.81Z"/><path id="_Trazado_compuesto_4" data-name="&lt;Trazado compuesto&gt;" class="cls-1" d="M109.36,483.22V453h8.75V463h36V453h8.75v30.26h-8.75V473.16h-36v10.06Z"/><path id="_Trazado_compuesto_5" data-name="&lt;Trazado compuesto&gt;" class="cls-1" d="M108.05,408a64.63,64.63,0,0,1,2-15.36l8.91,2.23a39.71,39.71,0,0,0-1.69,11.37c0,11.67,2,16,18.43,16s19-4.38,19-16A39.76,39.76,0,0,0,153,394.83l9.06-2.23A64.71,64.71,0,0,1,163.95,408c0,17-6.53,25.11-28.33,25.11S108.05,424.94,108.05,408Z"/><path id="_Trazado_compuesto_6" data-name="&lt;Trazado compuesto&gt;" class="cls-1" d="M149.51,352.3v18c4.76,1.31,9.29,2.61,13.36,3.53v9.83c-16-4.23-37.55-10.83-53.52-16.36V353.91c17.2-4.69,39.16-11.29,53.52-16.36V348C159,349.22,154.43,350.76,149.51,352.3Zm-29.87,9.6c6.91,2.23,13.67,4.23,21.19,6.14V354.83c-7.91,2.23-14.28,3.76-21.19,5.3Z"/><path id="_Trazado_compuesto_7" data-name="&lt;Trazado compuesto&gt;" class="cls-1" d="M162.87,323.67H109.36V300.39c0-11.29,7.91-14.9,18.35-14.9,9.21,0,17.51,4.38,17.51,14.67v13.36h17.66Zm-26.11-20.43c0-4.23-3.07-6.6-9.14-6.6-6.53,0-9.68,2.23-9.68,6.37v10.52h18.81Z"/><path id="_Trazado_compuesto_8" data-name="&lt;Trazado compuesto&gt;" class="cls-1" d="M109.36,268.23V238h8.75V248h36V238h8.75v30.26h-8.75V258.16h-36v10.06Z"/><path id="_Trazado_compuesto_9" data-name="&lt;Trazado compuesto&gt;" class="cls-1" d="M108.05,193a64.63,64.63,0,0,1,2-15.36l8.91,2.23a39.71,39.71,0,0,0-1.69,11.37c0,11.67,2,16,18.43,16s19-4.38,19-16A39.76,39.76,0,0,0,153,179.84l9.06-2.23A64.71,64.71,0,0,1,163.95,193c0,17-6.53,25.11-28.33,25.11S108.05,209.95,108.05,193Z"/><path id="_Trazado_compuesto_10" data-name="&lt;Trazado compuesto&gt;" class="cls-1" d="M149.51,137.31v18c4.76,1.31,9.29,2.61,13.36,3.53v9.83c-16-4.23-37.55-10.83-53.52-16.36V138.92c17.2-4.69,39.16-11.29,53.52-16.36V133C159,134.23,154.43,135.77,149.51,137.31Zm-29.87,9.6c6.91,2.23,13.67,4.23,21.19,6.14V139.84c-7.91,2.23-14.28,3.76-21.19,5.3Z"/></g></svg>